<?xml version="1.0" encoding="utf-8"?>
<!-- Generator: Adobe Illustrator 15.0.2, SVG Export Plug-In . SVG Version: 6.00 Build 0)  -->
<!DOCTYPE svg PUBLIC "-//W3C//DTD SVG 1.1//EN" "http://www.w3.org/Graphics/SVG/1.1/DTD/svg11.dtd">
<svg version="1.1" id="Layer_1" xmlns="http://www.w3.org/2000/svg" xmlns:xlink="http://www.w3.org/1999/xlink" x="0px" y="0px"
	 width="235px" height="58px" viewBox="0 0 235 58" enable-background="new 0 0 235 58" xml:space="preserve">
<rect id="white_background" fill="#FFFFFF" width="235" height="58"/>
<g>
	<path fill="#63A40D" d="M24.666,39.969c1.398-2.524,4.857-5.618,4.857-5.618s-0.792,4.572-2.191,7.097
		c-1.398,2.522-2.204,2.397-2.868,2.03C23.797,43.107,23.267,42.492,24.666,39.969"/>
	<path fill="#63A40D" d="M31.714,41.444c-1.398-2.523-2.191-7.095-2.191-7.095s3.459,3.095,4.857,5.619
		c1.398,2.523,0.867,3.141,0.202,3.509C33.917,43.846,33.112,43.969,31.714,41.444"/>
	<path fill="#63A40D" d="M39.375,24.608c-2.615,1.219-7.233,1.69-7.233,1.69s3.33-3.236,5.944-4.455
		c2.615-1.218,3.194-0.646,3.516,0.043C41.924,22.579,41.99,23.388,39.375,24.608"/>
	<path fill="#63A40D" d="M34.541,19.269c-0.352,2.863-2.4,7.03-2.4,7.03s-0.978-4.538-0.626-7.401
		c0.351-2.864,1.145-3.051,1.9-2.958C34.17,16.032,34.894,16.406,34.541,19.269"/>
	<path fill="#63A40D" d="M27.529,18.896c0.352,2.864-0.627,7.401-0.627,7.401s-2.047-4.166-2.399-7.029
		c-0.351-2.863,0.372-3.236,1.128-3.329C26.387,15.846,27.178,16.033,27.529,18.896"/>
	<path fill="#63A40D" d="M20.958,21.844c2.615,1.221,5.945,4.455,5.945,4.455s-4.619-0.472-7.233-1.69
		c-2.614-1.219-2.547-2.031-2.226-2.721C17.766,21.196,18.343,20.625,20.958,21.844"/>
	<path fill="#63A40D" d="M37.605,37.604c-1.967-2.11-3.843-6.354-3.843-6.354s4.106,2.167,6.073,4.276
		c1.968,2.109,1.601,2.837,1.046,3.355C40.322,39.403,39.573,39.715,37.605,37.604"/>
	<path fill="#63A40D" d="M41.189,31.358c-2.832,0.552-7.426-0.108-7.426-0.108s4.012-2.334,6.843-2.886
		c2.833-0.55,3.255,0.147,3.401,0.893C44.152,30.005,44.021,30.809,41.189,31.358"/>
	<path fill="#63A40D" d="M18.438,28.365c2.833,0.552,6.845,2.885,6.845,2.885s-4.594,0.659-7.426,0.109
		c-2.832-0.552-2.963-1.356-2.818-2.102C15.184,28.51,15.606,27.815,18.438,28.365"/>
	<path fill="#63A40D" d="M19.211,35.526c1.967-2.109,6.073-4.276,6.073-4.276s-1.875,4.244-3.842,6.354
		c-1.968,2.11-2.72,1.798-3.275,1.277C17.607,38.361,17.244,37.636,19.211,35.526"/>
	<path fill="#63A40D" d="M24.666,39.969c1.398-2.524,4.857-5.618,4.857-5.618s-0.792,4.572-2.191,7.097
		c-1.398,2.522-2.204,2.397-2.868,2.03C23.795,43.107,23.267,42.492,24.666,39.969"/>
	<path fill="#63A40D" d="M31.714,41.444c-1.398-2.523-2.191-7.095-2.191-7.095s3.459,3.095,4.857,5.619
		c1.398,2.523,0.867,3.14,0.202,3.509C33.917,43.846,33.112,43.969,31.714,41.444"/>
	<path fill="#8A8278" d="M60.86,39.646c-5.803,0-9.216-4.152-9.216-10.156c0-6.03,3.555-10.213,9.046-10.213
		c2.417,0,4.295,0.626,5.803,1.708l-0.341,2.02c-1.452-1.167-3.243-1.963-5.491-1.963c-4.381,0-6.998,3.356-6.998,8.419
		c0,5.066,2.617,8.393,7.226,8.393c1.849,0,3.186-0.425,4.496-1.223v-5.889h-4.723l-0.284-1.764h6.941v8.677
		C65.498,38.85,63.392,39.646,60.86,39.646"/>
	<path fill="#8A8278" d="M76.192,39.56c-3.443,0-6.032-2.56-6.032-6.997c0-4.467,2.646-7.027,6.032-7.027
		c3.5,0,6.117,2.56,6.117,7.027C82.309,37,79.635,39.56,76.192,39.56 M76.192,27.128c-2.673,0-4.125,2.249-4.125,5.435
		c0,3.1,1.479,5.404,4.125,5.404c2.731,0,4.182-2.218,4.182-5.404C80.374,29.461,78.895,27.128,76.192,27.128"/>
	<path fill="#8A8278" d="M90.245,39.56c-3.443,0-6.031-2.56-6.031-6.997c0-4.467,2.645-7.027,6.031-7.027
		c3.498,0,6.115,2.56,6.115,7.027C96.359,37,93.686,39.56,90.245,39.56 M90.245,27.128c-2.674,0-4.126,2.249-4.126,5.435
		c0,3.1,1.479,5.404,4.126,5.404c2.731,0,4.181-2.218,4.181-5.404C94.425,29.461,92.945,27.128,90.245,27.128"/>
	<path fill="#8A8278" d="M108.763,39.275l-0.341-1.964c-1.024,1.225-2.36,2.249-4.324,2.249c-2.958,0-5.434-2.106-5.434-6.63
		c0-4.921,2.873-7.311,6.145-7.311c1.365,0,2.56,0.257,3.499,0.683v-7.111l1.878-0.341v20.426H108.763z M108.308,28.039
		c-1.053-0.541-2.048-0.796-3.442-0.796c-2.418,0-4.295,1.821-4.295,5.604c0,3.272,1.563,5.035,3.697,5.035
		c1.594,0,2.846-0.968,4.04-2.418V28.039z"/>
	<polygon fill="#8A8278" points="125.289,39.39 123.524,39.39 115.874,19.874 117.809,19.447 124.437,36.857 130.951,19.646 
		132.999,19.646 	"/>
	<path fill="#8A8278" d="M143.694,32.676h-9.359c0.057,3.299,1.594,5.263,4.295,5.263c1.792,0,3.358-0.798,4.752-1.991l0.284,1.707
		c-1.337,1.137-3.072,1.906-5.149,1.906c-3.529,0-6.061-2.39-6.061-7.027c0-4.324,2.504-6.998,5.804-6.998
		c3.67,0,5.435,3.015,5.435,6.741V32.676z M138.26,27.042c-2.104,0-3.469,1.565-3.84,4.155h7.34
		C141.56,28.779,140.422,27.042,138.26,27.042"/>
	<path fill="#8A8278" d="M155.926,39.275v-9.273c0-1.735-0.796-2.789-2.503-2.789c-1.421,0-2.874,0.882-4.353,2.334v9.728h-1.878
		V25.819h1.45l0.314,1.992c1.479-1.309,3.014-2.276,4.835-2.276c2.674,0,4.012,1.537,4.012,4.126v9.614H155.926z"/>
	<path fill="#8A8278" d="M166.45,39.504c-2.104,0-3.498-0.827-3.498-3.302v-8.789h-2.078v-1.594h2.078v-4.666l1.851-0.312v4.978
		h3.099l0.256,1.594h-3.354v8.478c0,1.363,0.538,1.963,1.989,1.963c0.428,0,0.938-0.086,1.251-0.143l0.285,1.564
		C167.931,39.39,167.247,39.504,166.45,39.504"/>
	<path fill="#8A8278" d="M180.929,39.275l-0.313-1.99c-1.479,1.309-3.015,2.275-4.836,2.275c-2.702,0-4.011-1.565-4.011-4.126
		v-9.615h1.879v9.274c0,1.736,0.795,2.76,2.503,2.76c1.422,0,2.872-0.854,4.352-2.304v-9.73h1.878v13.456H180.929z"/>
	<path fill="#8A8278" d="M188.809,30.826v8.449h-1.878V25.819h1.394l0.428,2.759c0.995-1.507,2.56-2.986,4.777-3.043l0.314,1.764
		C191.624,27.441,189.719,29.033,188.809,30.826"/>
	<path fill="#8A8278" d="M206.132,32.676h-9.359c0.058,3.299,1.592,5.263,4.297,5.263c1.79,0,3.355-0.798,4.75-1.991l0.285,1.707
		c-1.339,1.137-3.072,1.906-5.148,1.906c-3.529,0-6.061-2.39-6.061-7.027c0-4.324,2.504-6.998,5.803-6.998
		c3.67,0,5.434,3.015,5.434,6.741V32.676z M200.698,27.042c-2.106,0-3.472,1.565-3.843,4.155h7.342
		C203.997,28.779,202.859,27.042,200.698,27.042"/>
	<path fill="#8A8278" d="M213.073,39.531c-1.791,0-3.671-0.568-4.837-1.223l0.313-1.822c1.251,0.799,2.901,1.452,4.693,1.452
		c1.879,0,3.045-0.796,3.045-2.161c0-1.338-0.796-1.936-3.472-2.646c-2.986-0.769-4.267-1.734-4.267-3.955
		c0-2.105,1.792-3.641,4.58-3.641c1.593,0,2.987,0.37,4.182,0.91l-0.313,1.793c-1.223-0.655-2.588-1.053-3.925-1.053
		c-1.851,0-2.731,0.796-2.731,1.907c0,1.109,0.739,1.679,3.016,2.276c3.187,0.853,4.723,1.878,4.723,4.268
		C218.08,38.082,216.174,39.531,213.073,39.531"/>
</g>
</svg>
